<svg xmlns="http://www.w3.org/2000/svg" width="37" height="368" viewBox="0 0 37 368"><style>.a{fill:#FFF;}.b{fill:#CCC;}</style><rect y="-0.1" width="13" height="368.1" class="a"/><path d="M31.2 12h-8.1c-1.2 0.9-1.8 2.3-1.8 3.9 0 1.7 0.6 3.2 1.8 4.1h8.1c1.2-0.9 1.8-2.4 1.8-4.1C33.1 14.3 32.4 12.9 31.2 12z" class="b"/><path d="M31.2 60h-8.1c-1.2 0.9-1.8 2.3-1.8 3.9 0 1.7 0.6 3.2 1.8 4.1h8.1c1.2-0.9 1.8-2.4 1.8-4.1C33.1 62.3 32.4 60.9 31.2 60z" class="b"/><path d="M31.2 36h-8.1c-1.2 0.9-1.8 2.3-1.8 3.9 0 1.7 0.6 3.2 1.8 4.1h8.1c1.2-0.9 1.8-2.4 1.8-4.1C33.1 38.3 32.4 36.9 31.2 36z" class="b"/><path d="M31.2 84h-8.1c-1.2 0.9-1.8 2.3-1.8 3.9 0 1.7 0.6 3.2 1.8 4.1h8.1c1.2-0.9 1.8-2.4 1.8-4.1C33.1 86.3 32.4 84.9 31.2 84z" class="b"/><path d="M31.2 108h-8.1c-1.2 0.9-1.8 2.3-1.8 3.9 0 1.7 0.6 3.2 1.8 4.1h8.1c1.2-0.9 1.8-2.4 1.8-4.1C33.1 110.3 32.4 108.9 31.2 108z" class="b"/><path d="M32.2 132h-8.1c-1.2 0.9-1.8 2.3-1.8 3.9 0 1.7 0.6 3.2 1.8 4.1h8.1c1.2-0.9 1.8-2.4 1.8-4.1C34.1 134.3 33.4 132.9 32.2 132z" class="b"/><path d="M32.2 156h-8.1c-1.2 0.9-1.8 2.3-1.8 3.9 0 1.7 0.6 3.2 1.8 4.1h8.1c1.2-0.9 1.8-2.4 1.8-4.1C34.1 158.3 33.4 156.9 32.2 156z" class="b"/><path d="M32.2 180h-8.1c-1.2 0.9-1.8 2.3-1.8 3.9 0 1.7 0.6 3.2 1.8 4.1h8.1c1.2-0.9 1.8-2.4 1.8-4.1C34.1 182.3 33.4 180.9 32.2 180z" class="b"/><path d="M32.2 204h-8.1c-1.2 0.9-1.8 2.3-1.8 3.9 0 1.7 0.6 3.2 1.8 4.1h8.1c1.2-0.9 1.8-2.4 1.8-4.1C34.1 206.3 33.4 204.9 32.2 204z" class="b"/><path d="M32.2 228h-8.1c-1.2 0.9-1.8 2.3-1.8 3.9 0 1.7 0.6 3.2 1.8 4.1h8.1c1.2-0.9 1.8-2.4 1.8-4.1C34.1 230.3 33.4 228.9 32.2 228z" class="b"/><path d="M31.2 252h-8.1c-1.2 0.9-1.8 2.3-1.8 3.9 0 1.7 0.6 3.2 1.8 4.1h8.1c1.2-0.9 1.8-2.4 1.8-4.1C33.1 254.3 32.4 252.9 31.2 252z" class="b"/><path d="M31.2 276h-8.1c-1.2 0.9-1.8 2.3-1.8 3.9 0 1.7 0.6 3.2 1.8 4.1h8.1c1.2-0.9 1.8-2.4 1.8-4.1C33.1 278.3 32.4 276.9 31.2 276z" class="b"/><path d="M31.2 300h-8.1c-1.2 0.9-1.8 2.3-1.8 3.9 0 1.7 0.6 3.2 1.8 4.1h8.1c1.2-0.9 1.8-2.4 1.8-4.1C33.1 302.3 32.4 300.9 31.2 300z" class="b"/><path d="M30.2 324h-8.1c-1.2 0.9-1.8 2.3-1.8 3.9 0 1.7 0.6 3.2 1.8 4.1h8.1c1.2-0.9 1.8-2.4 1.8-4.1C32.1 326.3 31.4 324.9 30.2 324z" class="b"/><path d="M31.2 348h-8.1c-1.2 0.9-1.8 2.3-1.8 3.9 0 1.7 0.6 3.2 1.8 4.1h8.1c1.2-0.9 1.8-2.4 1.8-4.1C33.1 350.3 32.4 348.9 31.2 348z" class="b"/><path d="M26 18H4c-1.1 0-2-0.9-2-2s0.9-2 2-2h22c1.1 0 2 0.9 2 2S27.1 18 26 18z"/><path d="M26 42H4c-1.1 0-2-0.9-2-2s0.9-2 2-2h22c1.1 0 2 0.9 2 2S27.1 42 26 42z"/><path d="M26 66H4c-1.1 0-2-0.9-2-2s0.9-2 2-2h22c1.1 0 2 0.9 2 2S27.1 66 26 66z"/><path d="M26 90H4c-1.1 0-2-0.9-2-2s0.9-2 2-2h22c1.1 0 2 0.9 2 2S27.1 90 26 90z"/><path d="M26 114H4c-1.1 0-2-0.9-2-2s0.9-2 2-2h22c1.1 0 2 0.9 2 2S27.1 114 26 114z"/><path d="M26 138H4c-1.1 0-2-0.9-2-2s0.9-2 2-2h22c1.1 0 2 0.9 2 2S27.1 138 26 138z"/><path d="M26 162H4c-1.1 0-2-0.9-2-2s0.9-2 2-2h22c1.1 0 2 0.9 2 2S27.1 162 26 162z"/><path d="M26 186H4c-1.1 0-2-0.9-2-2s0.9-2 2-2h22c1.1 0 2 0.9 2 2S27.1 186 26 186z"/><path d="M26 210H4c-1.1 0-2-0.9-2-2s0.9-2 2-2h22c1.1 0 2 0.9 2 2S27.1 210 26 210z"/><path d="M26 234H4c-1.1 0-2-0.9-2-2s0.9-2 2-2h22c1.1 0 2 0.9 2 2S27.1 234 26 234z"/><path d="M26 258H4c-1.1 0-2-0.9-2-2s0.9-2 2-2h22c1.1 0 2 0.9 2 2S27.1 258 26 258z"/><path d="M26 282H4c-1.1 0-2-0.9-2-2s0.9-2 2-2h22c1.1 0 2 0.9 2 2S27.1 282 26 282z"/><path d="M26 306H4c-1.1 0-2-0.9-2-2s0.9-2 2-2h22c1.1 0 2 0.9 2 2S27.1 306 26 306z"/><path d="M26 330H4c-1.1 0-2-0.9-2-2s0.9-2 2-2h22c1.1 0 2 0.9 2 2S27.1 330 26 330z"/><path d="M26 354H4c-1.1 0-2-0.9-2-2s0.9-2 2-2h22c1.1 0 2 0.9 2 2S27.1 354 26 354z"/><path d="M20.3 16H9.8c-0.2 0-0.4-0.4-0.4-0.5S9.6 15 9.8 15h10.5c0.2 0 0.4 0.4 0.4 0.5S20.5 16 20.3 16z" class="a"/><path d="M20.3 40H9.8c-0.2 0-0.4-0.4-0.4-0.5S9.6 39 9.8 39h10.5c0.2 0 0.4 0.4 0.4 0.5S20.5 40 20.3 40z" class="a"/><path d="M20.3 64H9.8c-0.2 0-0.4-0.4-0.4-0.5S9.6 63 9.8 63h10.5c0.2 0 0.4 0.4 0.4 0.5S20.5 64 20.3 64z" class="a"/><path d="M20.3 88H9.8c-0.2 0-0.4-0.4-0.4-0.5S9.6 87 9.8 87h10.5c0.2 0 0.4 0.4 0.4 0.5S20.5 88 20.3 88z" class="a"/><path d="M20.3 112H9.8c-0.2 0-0.4-0.4-0.4-0.5s0.2-0.5 0.4-0.5h10.5c0.2 0 0.4 0.4 0.4 0.5S20.5 112 20.3 112z" class="a"/><path d="M20.3 256H9.8c-0.2 0-0.4-0.4-0.4-0.5s0.2-0.5 0.4-0.5h10.5c0.2 0 0.4 0.4 0.4 0.5S20.5 256 20.3 256z" class="a"/><path d="M20.3 280H9.8c-0.2 0-0.4-0.4-0.4-0.5s0.2-0.5 0.4-0.5h10.5c0.2 0 0.4 0.4 0.4 0.5S20.5 280 20.3 280z" class="a"/><path d="M20.3 304H9.8c-0.2 0-0.4-0.4-0.4-0.5s0.2-0.5 0.4-0.5h10.5c0.2 0 0.4 0.4 0.4 0.5S20.5 304 20.3 304z" class="a"/><path d="M20.3 232H9.8c-0.2 0-0.4-0.4-0.4-0.5s0.2-0.5 0.4-0.5h10.5c0.2 0 0.4 0.4 0.4 0.5S20.5 232 20.3 232z" class="a"/><path d="M20.3 208H9.8c-0.2 0-0.4-0.4-0.4-0.5s0.2-0.5 0.4-0.5h10.5c0.2 0 0.4 0.4 0.4 0.5S20.5 208 20.3 208z" class="a"/><path d="M20.3 184H9.8c-0.2 0-0.4-0.4-0.4-0.5s0.2-0.5 0.4-0.5h10.5c0.2 0 0.4 0.4 0.4 0.5S20.5 184 20.3 184z" class="a"/><path d="M20.3 160H9.8c-0.2 0-0.4-0.4-0.4-0.5s0.2-0.5 0.4-0.5h10.5c0.2 0 0.4 0.4 0.4 0.5S20.5 160 20.3 160z" class="a"/><path d="M19.7 136H9.3c-0.2 0-0.4-0.4-0.4-0.5s0.2-0.5 0.4-0.5h10.5c0.2 0 0.4 0.4 0.4 0.5S20 136 19.7 136z" class="a"/><path d="M20.3 328H9.8c-0.2 0-0.4-0.4-0.4-0.5s0.2-0.5 0.4-0.5h10.5c0.2 0 0.4 0.4 0.4 0.5S20.5 328 20.3 328z" class="a"/><path d="M20.3 352H9.8c-0.2 0-0.4-0.4-0.4-0.5s0.2-0.5 0.4-0.5h10.5c0.2 0 0.4 0.4 0.4 0.5S20.5 352 20.3 352z" class="a"/></svg>