<?xml version="1.0" encoding="utf-8"?>
<!-- Generator: Adobe Illustrator 16.0.0, SVG Export Plug-In . SVG Version: 6.00 Build 0)  -->
<svg version="1.2" baseProfile="tiny" id="Layer_1" xmlns="http://www.w3.org/2000/svg" xmlns:xlink="http://www.w3.org/1999/xlink"
	 x="0px" y="0px" width="64px" height="64px" viewBox="0 0 64 64" xml:space="preserve">
<path fill="#FFFFFF" d="M36.242,32l16.879-16.879c1.172-1.171,1.172-3.071,0-4.242c-1.172-1.172-3.07-1.172-4.242,0L32,27.758
	L15.121,10.879c-1.171-1.172-3.071-1.172-4.242,0c-1.172,1.171-1.172,3.071,0,4.242L27.758,32L10.879,48.879
	c-1.172,1.171-1.172,3.071,0,4.242C11.464,53.707,12.232,54,13,54s1.536-0.293,2.121-0.879L32,36.242l16.879,16.879
	C49.465,53.707,50.232,54,51,54s1.535-0.293,2.121-0.879c1.172-1.171,1.172-3.071,0-4.242L36.242,32z"/>
</svg>
