<?xml version="1.0" encoding="utf-8"?>
<!-- Generator: Adobe Illustrator 16.0.0, SVG Export Plug-In . SVG Version: 6.00 Build 0)  -->
<!DOCTYPE svg PUBLIC "-//W3C//DTD SVG 1.1//EN" "http://www.w3.org/Graphics/SVG/1.1/DTD/svg11.dtd">
<svg version="1.1" id="Layer_1" xmlns="http://www.w3.org/2000/svg" xmlns:xlink="http://www.w3.org/1999/xlink" x="0px" y="0px"
	 width="291.184px" height="155.936px" viewBox="0 0 291.184 155.936" enable-background="new 0 0 291.184 155.936"
	 xml:space="preserve">
<g>
	<path fill="#323232" d="M3.979,125.829c-0.67,0-1.198,0.237-1.582,0.713s-0.576,1.132-0.576,1.968c0,0.875,0.185,1.538,0.554,1.987
		s0.904,0.674,1.604,0.674c0.303,0,0.596-0.03,0.879-0.091c0.283-0.06,0.578-0.137,0.884-0.231v1.001
		c-0.56,0.211-1.195,0.317-1.904,0.317c-1.045,0-1.847-0.316-2.407-0.95c-0.56-0.633-0.84-1.539-0.84-2.717
		c0-0.742,0.136-1.392,0.408-1.948s0.665-0.983,1.179-1.279s1.118-0.444,1.812-0.444c0.729,0,1.403,0.152,2.021,0.459l-0.42,0.972
		c-0.241-0.114-0.496-0.214-0.764-0.3C4.558,125.872,4.276,125.829,3.979,125.829z"/>
	<path fill="#323232" d="M11.948,129.359c0,0.883-0.227,1.57-0.679,2.065s-1.082,0.742-1.89,0.742c-0.505,0-0.95-0.114-1.338-0.342
		s-0.686-0.556-0.894-0.981c-0.208-0.426-0.312-0.922-0.312-1.484c0-0.875,0.225-1.559,0.674-2.051s1.082-0.737,1.899-0.737
		c0.781,0,1.399,0.251,1.855,0.755C11.721,127.828,11.948,128.506,11.948,129.359z M8.018,129.359c0,1.246,0.461,1.87,1.382,1.87
		c0.911,0,1.367-0.624,1.367-1.87c0-1.234-0.459-1.851-1.377-1.851c-0.481,0-0.831,0.159-1.048,0.479
		C8.126,128.307,8.018,128.764,8.018,129.359z"/>
	<path fill="#323232" d="M17.075,132.069l-0.161-0.708h-0.059c-0.159,0.25-0.387,0.447-0.681,0.591
		c-0.295,0.144-0.631,0.215-1.009,0.215c-0.654,0-1.143-0.163-1.465-0.488s-0.483-0.819-0.483-1.479v-3.53h1.157v3.33
		c0,0.413,0.085,0.724,0.254,0.931c0.169,0.206,0.435,0.31,0.796,0.31c0.481,0,0.836-0.144,1.062-0.433
		c0.226-0.287,0.339-0.77,0.339-1.447v-2.69h1.152v5.4H17.075z"/>
	<path fill="#323232" d="M22.354,126.571c0.231,0,0.422,0.017,0.571,0.049l-0.112,1.069c-0.163-0.039-0.332-0.059-0.508-0.059
		c-0.459,0-0.831,0.15-1.116,0.449c-0.284,0.299-0.427,0.688-0.427,1.167v2.822h-1.147v-5.4h0.898l0.151,0.952h0.059
		c0.179-0.322,0.413-0.578,0.7-0.767C21.712,126.666,22.021,126.571,22.354,126.571z"/>
	<path fill="#323232" d="M27.554,130.531c0,0.527-0.192,0.932-0.576,1.213c-0.384,0.282-0.935,0.423-1.65,0.423
		c-0.72,0-1.297-0.108-1.733-0.327v-0.991c0.635,0.293,1.226,0.439,1.772,0.439c0.706,0,1.06-0.214,1.06-0.64
		c0-0.137-0.039-0.25-0.117-0.342s-0.207-0.186-0.386-0.283s-0.428-0.209-0.747-0.332c-0.622-0.24-1.043-0.482-1.262-0.723
		c-0.221-0.24-0.33-0.553-0.33-0.938c0-0.463,0.187-0.821,0.559-1.076c0.373-0.256,0.88-0.384,1.521-0.384
		c0.635,0,1.235,0.128,1.802,0.386l-0.371,0.864c-0.583-0.241-1.072-0.361-1.47-0.361c-0.605,0-0.908,0.173-0.908,0.518
		c0,0.169,0.079,0.312,0.236,0.43c0.158,0.117,0.503,0.278,1.033,0.483c0.446,0.172,0.77,0.33,0.972,0.474s0.352,0.309,0.449,0.495
		C27.505,130.047,27.554,130.271,27.554,130.531z"/>
	<path fill="#323232" d="M31.152,132.167c-0.84,0-1.497-0.245-1.97-0.735c-0.475-0.489-0.711-1.164-0.711-2.023
		c0-0.883,0.22-1.576,0.659-2.08s1.043-0.757,1.812-0.757c0.713,0,1.276,0.216,1.689,0.649s0.62,1.029,0.62,1.787v0.62h-3.599
		c0.017,0.524,0.158,0.927,0.425,1.208c0.267,0.282,0.643,0.423,1.128,0.423c0.319,0,0.616-0.03,0.891-0.091
		c0.275-0.06,0.571-0.16,0.887-0.3v0.933c-0.28,0.133-0.563,0.229-0.85,0.283S31.521,132.167,31.152,132.167z M30.942,127.44
		c-0.364,0-0.656,0.116-0.877,0.347c-0.219,0.23-0.351,0.568-0.393,1.011h2.451c-0.007-0.446-0.114-0.784-0.322-1.013
		C31.594,127.555,31.307,127.44,30.942,127.44z"/>
	<path fill="#323232" d="M37.295,126.571c0.231,0,0.422,0.017,0.571,0.049l-0.112,1.069c-0.163-0.039-0.332-0.059-0.508-0.059
		c-0.459,0-0.831,0.15-1.116,0.449c-0.284,0.299-0.427,0.688-0.427,1.167v2.822h-1.147v-5.4h0.898l0.151,0.952h0.059
		c0.179-0.322,0.413-0.578,0.7-0.767C36.653,126.666,36.963,126.571,37.295,126.571z"/>
	<path fill="#323232" d="M42.246,132.069l-0.229-0.752h-0.039c-0.261,0.329-0.522,0.553-0.786,0.671
		c-0.264,0.119-0.603,0.179-1.016,0.179c-0.53,0-0.945-0.144-1.242-0.43c-0.299-0.286-0.447-0.692-0.447-1.216
		c0-0.557,0.207-0.977,0.62-1.26s1.043-0.438,1.89-0.464l0.933-0.029v-0.288c0-0.346-0.081-0.604-0.241-0.773
		c-0.162-0.172-0.411-0.257-0.75-0.257c-0.276,0-0.542,0.04-0.796,0.122s-0.498,0.178-0.732,0.288l-0.371-0.82
		c0.293-0.153,0.613-0.27,0.962-0.349c0.349-0.08,0.677-0.12,0.986-0.12c0.687,0,1.205,0.149,1.555,0.449
		c0.351,0.3,0.525,0.771,0.525,1.411v3.638H42.246z M40.537,131.288c0.417,0,0.751-0.116,1.004-0.349
		c0.252-0.233,0.378-0.56,0.378-0.979v-0.469l-0.693,0.029c-0.54,0.02-0.934,0.11-1.179,0.271c-0.246,0.162-0.369,0.408-0.369,0.74
		c0,0.24,0.071,0.428,0.215,0.559C40.036,131.223,40.251,131.288,40.537,131.288z"/>
</g>
<g>
	<path fill="#323232" d="M227.78,4.99c0,1.162-0.29,2.065-0.871,2.71s-1.404,0.967-2.469,0.967c-1.077,0-1.904-0.32-2.482-0.959
		s-0.867-1.549-0.867-2.727s0.291-2.083,0.872-2.715s1.41-0.947,2.487-0.947c1.062,0,1.882,0.321,2.461,0.962
		C227.491,2.921,227.78,3.825,227.78,4.99z M222.331,4.99c0,0.879,0.178,1.545,0.533,2c0.354,0.454,0.88,0.681,1.576,0.681
		c0.693,0,1.217-0.225,1.57-0.674s0.529-1.118,0.529-2.007c0-0.875-0.174-1.54-0.524-1.992s-0.872-0.679-1.565-0.679
		c-0.699,0-1.228,0.226-1.584,0.679S222.331,4.115,222.331,4.99z"/>
	<path fill="#323232" d="M231.204,7.739c0.279,0,0.559-0.044,0.84-0.132v0.864c-0.127,0.055-0.291,0.102-0.49,0.139
		c-0.201,0.038-0.408,0.056-0.623,0.056c-1.088,0-1.631-0.573-1.631-1.719v-2.91h-0.738V3.53l0.791-0.42l0.391-1.143h0.709v1.201
		h1.537v0.869h-1.537v2.891c0,0.277,0.068,0.481,0.207,0.613S230.979,7.739,231.204,7.739z"/>
	<path fill="#323232" d="M235.862,3.071c0.23,0,0.422,0.016,0.57,0.049l-0.111,1.069c-0.164-0.039-0.332-0.059-0.508-0.059
		c-0.459,0-0.832,0.15-1.117,0.449c-0.283,0.299-0.426,0.688-0.426,1.167v2.822h-1.148v-5.4h0.898l0.152,0.952h0.059
		c0.178-0.322,0.412-0.578,0.699-0.767C235.219,3.166,235.53,3.071,235.862,3.071z"/>
	<path fill="#323232" d="M242.223,5.859c0,0.882-0.227,1.571-0.678,2.065c-0.453,0.495-1.082,0.742-1.891,0.742
		c-0.504,0-0.949-0.114-1.338-0.342c-0.387-0.228-0.686-0.555-0.893-0.981c-0.209-0.426-0.312-0.921-0.312-1.484
		c0-0.875,0.225-1.559,0.674-2.051s1.082-0.737,1.898-0.737c0.781,0,1.4,0.251,1.855,0.754
		C241.997,4.329,242.223,5.006,242.223,5.859z M238.293,5.859c0,1.247,0.461,1.87,1.381,1.87c0.912,0,1.367-0.624,1.367-1.87
		c0-1.234-0.459-1.851-1.377-1.851c-0.48,0-0.83,0.16-1.047,0.479S238.293,5.264,238.293,5.859z"/>
	<path fill="#323232" d="M247.17,7.031c0,0.527-0.193,0.932-0.576,1.213c-0.385,0.282-0.936,0.422-1.65,0.422
		c-0.721,0-1.297-0.109-1.734-0.327V7.349c0.635,0.293,1.227,0.439,1.773,0.439c0.705,0,1.059-0.213,1.059-0.64
		c0-0.137-0.039-0.25-0.117-0.342s-0.207-0.186-0.385-0.283c-0.18-0.098-0.428-0.208-0.748-0.332
		c-0.621-0.241-1.043-0.482-1.262-0.723c-0.221-0.241-0.33-0.553-0.33-0.938c0-0.462,0.188-0.821,0.559-1.077
		c0.373-0.255,0.881-0.383,1.521-0.383c0.635,0,1.236,0.128,1.803,0.386l-0.371,0.864c-0.584-0.241-1.072-0.361-1.471-0.361
		c-0.605,0-0.908,0.172-0.908,0.518c0,0.169,0.08,0.312,0.236,0.43c0.158,0.117,0.504,0.278,1.033,0.483
		c0.447,0.172,0.77,0.331,0.973,0.474c0.201,0.143,0.352,0.309,0.449,0.496S247.17,6.771,247.17,7.031z"/>
</g>
<g>
	<path fill="#323232" d="M223.118,129.218v2.852h-1.166v-7.139h2.016c0.922,0,1.604,0.173,2.047,0.518
		c0.442,0.345,0.664,0.866,0.664,1.562c0,0.889-0.463,1.522-1.387,1.899l2.016,3.159h-1.328l-1.709-2.852H223.118z M223.118,128.251
		h0.811c0.544,0,0.938-0.101,1.182-0.303s0.367-0.501,0.367-0.898c0-0.403-0.133-0.693-0.396-0.869s-0.66-0.264-1.191-0.264h-0.771
		V128.251z"/>
	<path fill="#323232" d="M230.579,132.167c-0.84,0-1.496-0.245-1.969-0.735c-0.475-0.489-0.711-1.164-0.711-2.023
		c0-0.883,0.219-1.576,0.658-2.08s1.043-0.757,1.812-0.757c0.713,0,1.275,0.216,1.689,0.649c0.412,0.434,0.619,1.029,0.619,1.787
		v0.62h-3.598c0.016,0.524,0.158,0.927,0.424,1.208c0.268,0.282,0.643,0.423,1.129,0.423c0.318,0,0.615-0.03,0.891-0.091
		c0.275-0.06,0.57-0.16,0.887-0.3v0.933c-0.281,0.133-0.564,0.229-0.85,0.283C231.274,132.139,230.948,132.167,230.579,132.167z
		 M230.37,127.44c-0.365,0-0.656,0.116-0.877,0.347c-0.219,0.23-0.352,0.568-0.393,1.011h2.451
		c-0.008-0.446-0.115-0.784-0.322-1.013C231.02,127.555,230.733,127.44,230.37,127.44z"/>
	<path fill="#323232" d="M235.803,132.167c-0.674,0-1.199-0.244-1.576-0.732c-0.379-0.488-0.566-1.173-0.566-2.056
		c0-0.885,0.191-1.574,0.574-2.068c0.381-0.492,0.912-0.739,1.588-0.739c0.711,0,1.25,0.263,1.621,0.786h0.059
		c-0.055-0.387-0.082-0.693-0.082-0.918v-1.968h1.152v7.598h-0.898l-0.201-0.708h-0.053
		C237.051,131.898,236.514,132.167,235.803,132.167z M236.112,131.239c0.471,0,0.814-0.133,1.029-0.397
		c0.215-0.266,0.326-0.696,0.332-1.292v-0.161c0-0.68-0.109-1.164-0.332-1.45c-0.221-0.286-0.568-0.43-1.039-0.43
		c-0.404,0-0.715,0.163-0.934,0.491c-0.217,0.326-0.326,0.793-0.326,1.398c0,0.6,0.105,1.056,0.316,1.369
		C235.372,131.082,235.688,131.239,236.112,131.239z"/>
	<path fill="#323232" d="M242.571,132.167c-0.84,0-1.496-0.245-1.969-0.735c-0.475-0.489-0.711-1.164-0.711-2.023
		c0-0.883,0.219-1.576,0.658-2.08s1.043-0.757,1.812-0.757c0.713,0,1.275,0.216,1.689,0.649c0.412,0.434,0.619,1.029,0.619,1.787
		v0.62h-3.598c0.016,0.524,0.158,0.927,0.424,1.208c0.268,0.282,0.643,0.423,1.129,0.423c0.318,0,0.615-0.03,0.891-0.091
		c0.275-0.06,0.57-0.16,0.887-0.3v0.933c-0.281,0.133-0.564,0.229-0.85,0.283C243.266,132.139,242.94,132.167,242.571,132.167z
		 M242.362,127.44c-0.365,0-0.656,0.116-0.877,0.347c-0.219,0.23-0.352,0.568-0.393,1.011h2.451
		c-0.008-0.446-0.115-0.784-0.322-1.013C243.012,127.555,242.725,127.44,242.362,127.44z"/>
	<path fill="#323232" d="M249.602,130.531c0,0.527-0.191,0.932-0.576,1.213c-0.383,0.282-0.934,0.423-1.65,0.423
		c-0.719,0-1.297-0.108-1.732-0.327v-0.991c0.635,0.293,1.225,0.439,1.771,0.439c0.707,0,1.061-0.214,1.061-0.64
		c0-0.137-0.039-0.25-0.117-0.342s-0.207-0.186-0.387-0.283c-0.178-0.098-0.428-0.209-0.746-0.332
		c-0.623-0.24-1.043-0.482-1.262-0.723c-0.221-0.24-0.33-0.553-0.33-0.938c0-0.463,0.186-0.821,0.559-1.076
		c0.373-0.256,0.879-0.384,1.521-0.384c0.635,0,1.234,0.128,1.801,0.386l-0.371,0.864c-0.582-0.241-1.072-0.361-1.469-0.361
		c-0.605,0-0.908,0.173-0.908,0.518c0,0.169,0.078,0.312,0.236,0.43s0.502,0.278,1.033,0.483c0.445,0.172,0.77,0.33,0.971,0.474
		c0.203,0.144,0.352,0.309,0.449,0.495C249.553,130.047,249.602,130.271,249.602,130.531z"/>
	<path fill="#323232" d="M257.678,130.131c0,0.635-0.229,1.133-0.688,1.494s-1.092,0.542-1.9,0.542
		c-0.807,0-1.467-0.126-1.982-0.376v-1.104c0.326,0.152,0.672,0.273,1.037,0.361c0.367,0.088,0.709,0.132,1.023,0.132
		c0.463,0,0.803-0.088,1.023-0.264c0.219-0.176,0.33-0.411,0.33-0.708c0-0.268-0.102-0.493-0.303-0.679
		c-0.203-0.186-0.619-0.405-1.25-0.659c-0.652-0.264-1.111-0.564-1.377-0.903c-0.268-0.339-0.4-0.745-0.4-1.221
		c0-0.596,0.211-1.064,0.635-1.406c0.422-0.342,0.99-0.513,1.703-0.513c0.684,0,1.365,0.15,2.041,0.449l-0.371,0.952
		c-0.635-0.267-1.201-0.4-1.699-0.4c-0.377,0-0.664,0.082-0.859,0.247c-0.195,0.164-0.293,0.381-0.293,0.651
		c0,0.186,0.039,0.345,0.117,0.476c0.078,0.133,0.207,0.257,0.387,0.374c0.178,0.117,0.5,0.272,0.967,0.464
		c0.523,0.219,0.908,0.422,1.152,0.61s0.422,0.401,0.537,0.64C257.622,129.529,257.678,129.809,257.678,130.131z"/>
	<path fill="#323232" d="M263.729,129.359c0,0.883-0.227,1.57-0.68,2.065c-0.451,0.495-1.082,0.742-1.889,0.742
		c-0.506,0-0.951-0.114-1.338-0.342c-0.389-0.228-0.686-0.556-0.895-0.981c-0.207-0.426-0.312-0.922-0.312-1.484
		c0-0.875,0.225-1.559,0.674-2.051s1.082-0.737,1.9-0.737c0.781,0,1.398,0.251,1.855,0.755
		C263.5,127.828,263.729,128.506,263.729,129.359z M259.797,129.359c0,1.246,0.461,1.87,1.383,1.87c0.91,0,1.367-0.624,1.367-1.87
		c0-1.234-0.459-1.851-1.377-1.851c-0.482,0-0.832,0.159-1.049,0.479C259.907,128.307,259.797,128.764,259.797,129.359z"/>
	<path fill="#323232" d="M267.225,132.167c-0.818,0-1.438-0.238-1.863-0.716c-0.424-0.477-0.637-1.16-0.637-2.053
		c0-0.908,0.223-1.606,0.666-2.095c0.445-0.488,1.086-0.732,1.926-0.732c0.57,0,1.082,0.106,1.539,0.317l-0.348,0.923
		c-0.484-0.188-0.885-0.283-1.201-0.283c-0.934,0-1.4,0.62-1.4,1.86c0,0.605,0.115,1.061,0.35,1.365
		c0.232,0.304,0.572,0.456,1.021,0.456c0.512,0,0.994-0.127,1.451-0.381v1.001c-0.205,0.121-0.424,0.207-0.656,0.259
		C267.838,132.141,267.557,132.167,267.225,132.167z"/>
	<path fill="#323232" d="M269.93,125.238c0-0.205,0.057-0.363,0.168-0.474c0.113-0.11,0.273-0.166,0.48-0.166
		c0.203,0,0.359,0.056,0.473,0.166c0.111,0.11,0.168,0.269,0.168,0.474c0,0.195-0.057,0.35-0.168,0.461
		c-0.113,0.113-0.27,0.169-0.473,0.169c-0.207,0-0.367-0.056-0.48-0.169C269.987,125.588,269.93,125.434,269.93,125.238z
		 M271.145,132.069h-1.146v-5.4h1.146V132.069z"/>
	<path fill="#323232" d="M276.165,132.069l-0.229-0.752h-0.039c-0.262,0.329-0.523,0.553-0.787,0.671
		c-0.264,0.119-0.602,0.179-1.016,0.179c-0.529,0-0.945-0.144-1.242-0.43c-0.299-0.286-0.447-0.692-0.447-1.216
		c0-0.557,0.207-0.977,0.621-1.26c0.412-0.283,1.043-0.438,1.889-0.464l0.934-0.029v-0.288c0-0.346-0.082-0.604-0.242-0.773
		c-0.162-0.172-0.41-0.257-0.75-0.257c-0.275,0-0.541,0.04-0.795,0.122s-0.498,0.178-0.732,0.288l-0.371-0.82
		c0.293-0.153,0.613-0.27,0.961-0.349c0.35-0.08,0.678-0.12,0.986-0.12c0.688,0,1.205,0.149,1.555,0.449
		c0.352,0.3,0.525,0.771,0.525,1.411v3.638H276.165z M274.456,131.288c0.418,0,0.752-0.116,1.004-0.349
		c0.252-0.233,0.379-0.56,0.379-0.979v-0.469l-0.693,0.029c-0.541,0.02-0.934,0.11-1.18,0.271c-0.246,0.162-0.369,0.408-0.369,0.74
		c0,0.24,0.072,0.428,0.215,0.559C273.956,131.223,274.17,131.288,274.456,131.288z"/>
	<path fill="#323232" d="M279.735,132.069h-1.148v-7.598h1.148V132.069z"/>
	<path fill="#323232" d="M283.733,132.167c-0.84,0-1.496-0.245-1.969-0.735c-0.475-0.489-0.711-1.164-0.711-2.023
		c0-0.883,0.219-1.576,0.658-2.08s1.043-0.757,1.812-0.757c0.713,0,1.275,0.216,1.689,0.649c0.412,0.434,0.619,1.029,0.619,1.787
		v0.62h-3.598c0.016,0.524,0.158,0.927,0.424,1.208c0.268,0.282,0.643,0.423,1.129,0.423c0.318,0,0.615-0.03,0.891-0.091
		c0.275-0.06,0.57-0.16,0.887-0.3v0.933c-0.281,0.133-0.564,0.229-0.85,0.283C284.428,132.139,284.102,132.167,283.733,132.167z
		 M283.524,127.44c-0.365,0-0.656,0.116-0.877,0.347c-0.219,0.23-0.352,0.568-0.393,1.011h2.451
		c-0.008-0.446-0.115-0.784-0.322-1.013C284.174,127.555,283.887,127.44,283.524,127.44z"/>
	<path fill="#323232" d="M290.764,130.531c0,0.527-0.191,0.932-0.576,1.213c-0.383,0.282-0.934,0.423-1.65,0.423
		c-0.719,0-1.297-0.108-1.732-0.327v-0.991c0.635,0.293,1.225,0.439,1.771,0.439c0.707,0,1.061-0.214,1.061-0.64
		c0-0.137-0.039-0.25-0.117-0.342s-0.207-0.186-0.387-0.283c-0.178-0.098-0.428-0.209-0.746-0.332
		c-0.623-0.24-1.043-0.482-1.262-0.723c-0.221-0.24-0.33-0.553-0.33-0.938c0-0.463,0.186-0.821,0.559-1.076
		c0.373-0.256,0.879-0.384,1.521-0.384c0.635,0,1.234,0.128,1.801,0.386l-0.371,0.864c-0.582-0.241-1.072-0.361-1.469-0.361
		c-0.605,0-0.908,0.173-0.908,0.518c0,0.169,0.078,0.312,0.236,0.43s0.502,0.278,1.033,0.483c0.445,0.172,0.77,0.33,0.971,0.474
		c0.203,0.144,0.352,0.309,0.449,0.495C290.715,130.047,290.764,130.271,290.764,130.531z"/>
</g>
<path fill="#323232" d="M147.872,72.353"/>
<g>
	<path fill="#DF484F" d="M89.389,136.458c28.898,26.646,73.932,25.957,101.98-2.092c28.768-28.768,28.768-75.412,0-104.18
		c-6.059-6.057-12.914-10.822-20.223-14.33l-31.869,66.42L89.389,136.458z"/>
	<polygon fill="#DF484F" points="89.381,136.466 89.389,136.458 89.375,136.447 	"/>
	<path fill="#DF484F" d="M67.422,66.021l0.01,0.031c0.002-0.01,0.004-0.018,0.006-0.027L67.422,66.021"/>
	<polygon fill="#DF484F" points="171.153,15.847 171.139,15.853 171.147,15.856 	"/>
</g>
<g>
	<path fill="#81E6E6" d="M164.43,151.737L140,82.236l62.291-39.308C189.239,22.288,166.229,8.569,140,8.569
		c-40.686,0-73.666,32.982-73.666,73.667s32.98,73.667,73.666,73.667C148.567,155.903,156.784,154.425,164.43,151.737"/>
</g>
<path fill="#323232" d="M140,82.236l24.434,69.512L140,82.236z"/>
<g>
	<path fill="#4587C3" d="M136.965,8.646C97.69,10.239,66.334,42.569,66.334,82.236c0,40.685,32.98,73.667,73.666,73.667
		c8.566,0,16.783-1.479,24.43-4.166L140,82.236L136.965,8.646z"/>
	<path fill="#4587C3" d="M136.965,8.637v0.009c0.006,0,0.012,0,0.018,0L136.965,8.637z"/>
	<path fill="#4587C3" d="M202.305,42.921l-0.029-0.016c0.006,0.008,0.01,0.016,0.016,0.023L202.305,42.921"/>
	<polygon fill="#4587C3" points="164.434,151.748 164.44,151.733 164.43,151.737 	"/>
</g>
<polygon fill="#757575" points="171.278,29.945 170.62,29.191 190.813,11.568 225.592,11.568 225.592,12.568 191.188,12.568 "/>
<polygon fill="#757575" points="229.592,135.568 194.813,135.568 194.671,135.445 174.62,117.945 175.278,117.191 195.188,134.568 
	229.592,134.568 "/>
<polygon fill="#757575" points="69.344,135.568 33.592,135.568 33.592,134.568 68.962,134.568 88.387,117.195 89.054,117.941 "/>
<g>
	<path fill="#FFFFFF" d="M95.171,106.99c0-1.979,0.418-3.45,1.254-4.416c0.836-0.967,2.088-1.449,3.756-1.449
		c0.57,0,1.016,0.033,1.34,0.102v1.689c-0.406-0.092-0.807-0.137-1.203-0.137c-0.725,0-1.316,0.109-1.774,0.328
		s-0.801,0.542-1.029,0.971c-0.228,0.428-0.362,1.036-0.403,1.824h0.089c0.451-0.774,1.173-1.162,2.167-1.162
		c0.893,0,1.593,0.281,2.099,0.842s0.759,1.335,0.759,2.324c0,1.066-0.301,1.91-0.902,2.532s-1.436,0.933-2.502,0.933
		c-0.738,0-1.382-0.17-1.931-0.512s-0.973-0.842-1.271-1.498S95.171,107.915,95.171,106.99z M98.78,109.684
		c0.451,0,0.797-0.152,1.039-0.455s0.362-0.734,0.362-1.295c0-0.488-0.113-0.872-0.338-1.152s-0.566-0.42-1.022-0.42
		c-0.428,0-0.794,0.139-1.097,0.416c-0.303,0.278-0.455,0.602-0.455,0.971c0,0.543,0.143,1.001,0.427,1.375
		C97.981,109.496,98.343,109.684,98.78,109.684z"/>
	<path fill="#FFFFFF" d="M110.217,111.234h-6.986v-1.469l2.509-2.537c0.743-0.761,1.229-1.288,1.456-1.582s0.392-0.566,0.492-0.816
		c0.101-0.251,0.15-0.511,0.15-0.779c0-0.401-0.11-0.7-0.332-0.896c-0.221-0.195-0.516-0.293-0.885-0.293
		c-0.388,0-0.764,0.088-1.128,0.266s-0.745,0.432-1.142,0.76l-1.148-1.361c0.492-0.419,0.9-0.715,1.224-0.889
		c0.323-0.173,0.677-0.307,1.06-0.399s0.812-0.14,1.285-0.14c0.624,0,1.176,0.113,1.654,0.342c0.479,0.228,0.85,0.547,1.114,0.957
		s0.396,0.879,0.396,1.408c0,0.46-0.081,0.892-0.243,1.295c-0.161,0.403-0.412,0.816-0.752,1.24
		c-0.339,0.424-0.938,1.028-1.794,1.812l-1.285,1.209v0.096h4.354V111.234z"/>
	<path fill="#FFFFFF" d="M115.843,104.221c0,1.049-0.203,1.836-0.608,2.362s-1,0.79-1.784,0.79c-0.752,0-1.333-0.271-1.743-0.811
		s-0.615-1.32-0.615-2.342c0-2.082,0.786-3.123,2.358-3.123c0.771,0,1.361,0.27,1.773,0.81
		C115.637,102.447,115.843,103.219,115.843,104.221z M112.814,104.234c0,0.579,0.052,1.012,0.153,1.296
		c0.104,0.284,0.269,0.427,0.496,0.427c0.438,0,0.656-0.574,0.656-1.723c0-1.139-0.219-1.709-0.656-1.709
		c-0.228,0-0.393,0.141-0.496,0.421C112.866,103.227,112.814,103.656,112.814,104.234z M120.546,101.24l-5.544,9.994h-1.641
		l5.544-9.994H120.546z M122.843,108.213c0,1.044-0.203,1.829-0.608,2.355s-1,0.789-1.784,0.789c-0.752,0-1.333-0.27-1.743-0.81
		s-0.615-1.318-0.615-2.335c0-2.082,0.786-3.123,2.358-3.123c0.771,0,1.361,0.27,1.773,0.81
		C122.637,106.439,122.843,107.211,122.843,108.213z M119.814,108.227c0,0.579,0.052,1.012,0.153,1.296
		c0.104,0.284,0.269,0.427,0.496,0.427c0.438,0,0.656-0.574,0.656-1.723c0-1.139-0.219-1.709-0.656-1.709
		c-0.228,0-0.393,0.141-0.496,0.421C119.866,107.219,119.814,107.648,119.814,108.227z"/>
</g>
<g>
	<path fill="#FFFFFF" d="M174.225,112.568h-6.986v-1.47l2.51-2.536c0.742-0.762,1.228-1.289,1.455-1.582
		c0.229-0.295,0.393-0.566,0.492-0.817c0.101-0.251,0.15-0.511,0.15-0.779c0-0.401-0.109-0.7-0.331-0.896s-0.517-0.294-0.886-0.294
		c-0.387,0-0.763,0.089-1.127,0.267c-0.365,0.178-0.746,0.431-1.143,0.759l-1.148-1.36c0.492-0.42,0.9-0.715,1.225-0.889
		c0.323-0.174,0.676-0.307,1.059-0.4c0.383-0.093,0.812-0.14,1.285-0.14c0.625,0,1.176,0.114,1.654,0.342s0.851,0.547,1.115,0.957
		c0.264,0.41,0.396,0.88,0.396,1.408c0,0.46-0.082,0.892-0.244,1.296c-0.16,0.402-0.412,0.816-0.751,1.24s-0.938,1.027-1.794,1.812
		l-1.285,1.21v0.096h4.354V112.568z"/>
	<path fill="#FFFFFF" d="M176.221,112.568l3.754-8.203h-4.93v-1.777h7.172v1.326l-3.781,8.654H176.221z"/>
	<path fill="#FFFFFF" d="M187.842,105.555c0,1.049-0.203,1.836-0.607,2.361c-0.406,0.527-1,0.79-1.785,0.79
		c-0.752,0-1.332-0.271-1.742-0.81c-0.41-0.541-0.615-1.32-0.615-2.342c0-2.082,0.785-3.124,2.357-3.124
		c0.771,0,1.361,0.271,1.773,0.81C187.637,103.781,187.842,104.553,187.842,105.555z M184.815,105.568
		c0,0.578,0.051,1.011,0.152,1.295c0.104,0.285,0.27,0.428,0.496,0.428c0.438,0,0.656-0.574,0.656-1.723
		c0-1.139-0.219-1.709-0.656-1.709c-0.227,0-0.393,0.141-0.496,0.42C184.866,104.561,184.815,104.99,184.815,105.568z
		 M192.545,102.574l-5.543,9.994h-1.641l5.543-9.994H192.545z M194.842,109.547c0,1.043-0.203,1.828-0.607,2.355
		c-0.406,0.525-1,0.789-1.785,0.789c-0.752,0-1.332-0.27-1.742-0.811c-0.41-0.539-0.615-1.318-0.615-2.334
		c0-2.082,0.785-3.124,2.357-3.124c0.771,0,1.361,0.271,1.773,0.81C194.637,107.773,194.842,108.545,194.842,109.547z
		 M191.815,109.561c0,0.578,0.051,1.011,0.152,1.295c0.104,0.285,0.27,0.428,0.496,0.428c0.438,0,0.656-0.574,0.656-1.723
		c0-1.139-0.219-1.709-0.656-1.709c-0.227,0-0.393,0.141-0.496,0.42C191.866,108.553,191.815,108.982,191.815,109.561z"/>
</g>
<g>
	<path fill="#FFFFFF" d="M150.129,55.235h-2.113v-5.783l0.021-0.95l0.034-1.039c-0.351,0.351-0.595,0.581-0.731,0.69l-1.148,0.923
		l-1.019-1.271l3.22-2.563h1.737V55.235z"/>
	<path fill="#FFFFFF" d="M158.12,55.235h-2.111v-5.783l0.02-0.95l0.035-1.039c-0.352,0.351-0.596,0.581-0.732,0.69l-1.148,0.923
		l-1.018-1.271l3.219-2.563h1.736V55.235z"/>
	<path fill="#FFFFFF" d="M165.51,48.221c0,1.048-0.203,1.835-0.609,2.362c-0.404,0.526-1,0.79-1.783,0.79
		c-0.752,0-1.334-0.27-1.744-0.81s-0.615-1.32-0.615-2.341c0-2.083,0.787-3.124,2.359-3.124c0.77,0,1.361,0.27,1.773,0.81
		S165.51,47.219,165.51,48.221z M162.481,48.235c0,0.579,0.053,1.011,0.154,1.295c0.104,0.285,0.268,0.427,0.496,0.427
		c0.438,0,0.656-0.574,0.656-1.723c0-1.139-0.219-1.709-0.656-1.709c-0.229,0-0.393,0.14-0.496,0.42
		C162.534,47.227,162.481,47.656,162.481,48.235z M170.213,45.241l-5.545,9.994h-1.641l5.545-9.994H170.213z M172.51,52.213
		c0,1.043-0.203,1.829-0.609,2.355c-0.404,0.526-1,0.79-1.783,0.79c-0.752,0-1.334-0.27-1.744-0.81s-0.615-1.318-0.615-2.334
		c0-2.083,0.787-3.124,2.359-3.124c0.77,0,1.361,0.27,1.773,0.81S172.51,51.211,172.51,52.213z M169.481,52.227
		c0,0.579,0.053,1.011,0.154,1.295c0.104,0.285,0.268,0.427,0.496,0.427c0.438,0,0.656-0.574,0.656-1.723
		c0-1.139-0.219-1.709-0.656-1.709c-0.229,0-0.393,0.14-0.496,0.42C169.534,51.219,169.481,51.648,169.481,52.227z"/>
</g>
</svg>
