<?xml version="1.0" encoding="utf-8"?>
<!-- Generator: Adobe Illustrator 16.0.0, SVG Export Plug-In . SVG Version: 6.00 Build 0)  -->
<svg version="1.2" baseProfile="tiny" id="Layer_1" xmlns="http://www.w3.org/2000/svg" xmlns:xlink="http://www.w3.org/1999/xlink"
	 x="0px" y="0px" width="64px" height="64px" viewBox="0 0 64 64" xml:space="preserve">
<g>
	<polygon fill="#FFFFFF" points="8,4 8,48 46,48 46,16 34,4 	"/>
</g>
<path fill="#FFFFFF" d="M48.891,59.664c0.047,0.031,0.101,0.053,0.148,0.08c0.064,0.035,0.127,0.074,0.195,0.104
	c0.065,0.027,0.133,0.043,0.201,0.062c0.057,0.016,0.112,0.039,0.172,0.051c0.26,0.051,0.524,0.051,0.783,0
	c0.061-0.012,0.114-0.035,0.174-0.051c0.065-0.02,0.135-0.035,0.199-0.062c0.067-0.029,0.131-0.067,0.194-0.104
	c0.051-0.027,0.103-0.049,0.147-0.08c0.111-0.074,0.215-0.158,0.308-0.25l6-6c0.78-0.781,0.78-2.047,0-2.828
	c-0.781-0.781-2.052-0.781-2.832,0l-2.59,2.586V33.999c0-1.104-0.896-2-2-2s-2,0.896-2,2v19.173l-2.582-2.586
	c-0.781-0.781-2.046-0.781-2.826,0C42.193,50.977,42,51.488,42,52s0.195,1.021,0.586,1.414l5.998,6
	C48.678,59.506,48.781,59.59,48.891,59.664z"/>
</svg>
