<?xml version="1.0" encoding="utf-8"?>
<!-- Generator: Adobe Illustrator 16.0.0, SVG Export Plug-In . SVG Version: 6.00 Build 0)  -->
<svg version="1.2" baseProfile="tiny" id="Layer_1" xmlns="http://www.w3.org/2000/svg" xmlns:xlink="http://www.w3.org/1999/xlink"
	 x="0px" y="0px" width="64px" height="64px" viewBox="0 0 64 64" xml:space="preserve">
<polygon fill="#323232" points="38,38 38,50 14,50 14,14 38,14 38,26 42,26 42,10 10,10 10,54 42,54 42,38 "/>
<path fill="#323232" d="M55.789,33.108c0.031-0.047,0.053-0.099,0.08-0.148c0.035-0.064,0.074-0.127,0.104-0.195
	c0.027-0.065,0.043-0.133,0.062-0.2c0.016-0.058,0.039-0.113,0.051-0.173c0.051-0.259,0.051-0.524,0-0.783
	c-0.012-0.06-0.035-0.115-0.051-0.173c-0.02-0.067-0.035-0.135-0.062-0.2c-0.029-0.068-0.068-0.131-0.104-0.195
	c-0.027-0.05-0.049-0.102-0.08-0.148c-0.074-0.11-0.158-0.214-0.25-0.307l-6-5.999c-0.781-0.781-2.047-0.781-2.828,0
	s-0.781,2.047,0,2.828L49.297,30H30.125c-1.104,0-2,0.896-2,2s0.896,2,2,2h19.172l-2.586,2.586c-0.781,0.781-0.781,2.047,0,2.828
	C47.102,39.805,47.613,40,48.125,40s1.023-0.195,1.414-0.586l6-5.999C55.631,33.322,55.715,33.219,55.789,33.108z"/>
</svg>
