<?xml version="1.0" encoding="utf-8"?>
<!-- Generator: Adobe Illustrator 16.0.0, SVG Export Plug-In . SVG Version: 6.00 Build 0)  -->
<svg version="1.2" baseProfile="tiny" id="Layer_1" xmlns="http://www.w3.org/2000/svg" xmlns:xlink="http://www.w3.org/1999/xlink"
	 x="0px" y="0px" width="64px" height="64px" viewBox="0 0 64 64" xml:space="preserve">
<path fill="#FFFFFF" d="M16,10v4h-4c-1.104,0-2,0.896-2,2s0.896,2,2,2h4v4h-4c-1.104,0-2,0.896-2,2s0.896,2,2,2h4v4h-4
	c-1.104,0-2,0.896-2,2c0,1.104,0.896,2,2,2h4v4h-4c-1.104,0-2,0.896-2,2s0.896,2,2,2h4v4h-4c-1.104,0-2,0.896-2,2s0.896,2,2,2h4v4
	h38V10H16z"/>
</svg>
