<?xml version="1.0" encoding="utf-8"?>
<!-- Generator: Adobe Illustrator 16.0.0, SVG Export Plug-In . SVG Version: 6.00 Build 0)  -->
<svg version="1.2" baseProfile="tiny" id="Layer_1" xmlns="http://www.w3.org/2000/svg" xmlns:xlink="http://www.w3.org/1999/xlink"
	 x="0px" y="0px" width="64px" height="64px" viewBox="0 0 64 64" xml:space="preserve">
<g>
	<path fill="#323232" d="M14,16l2,37.05c0,0.525,0.447,0.95,1,0.95h30c0.553,0,1-0.425,1-0.95L50,16H14.008H14z"/>
	<path fill="#323232" d="M50,10h-9V7.833C41,6.729,40.104,6,39,6H25c-1.104,0-2,0.729-2,1.833V10h-9c-1.104,0-2,0.896-2,2
		s0.896,2,2,2h36c1.104,0,2-0.896,2-2S51.104,10,50,10z"/>
</g>
</svg>
