<?xml version="1.0" encoding="utf-8"?>
<!-- Generator: Adobe Illustrator 16.0.0, SVG Export Plug-In . SVG Version: 6.00 Build 0)  -->
<svg version="1.2" baseProfile="tiny" id="Layer_1" xmlns="http://www.w3.org/2000/svg" xmlns:xlink="http://www.w3.org/1999/xlink"
	 x="0px" y="0px" width="64px" height="64px" viewBox="0 0 64 64" xml:space="preserve">
<g>
	<polygon fill="none" points="24,29.999 24,29.996 19.344,39.396 24.909,45.271 34,40.571 34,40.573 34.916,36.465 30.973,37.047 
		31.638,32.939 27.57,33.523 28.131,29.414 	"/>
	<path fill="#323232" d="M21.736,27.647l-4.699,9.397l-7,16.499l17.573-5.923l9.399-4.7l17.622-17.623L39.359,10.024L21.736,27.647z
		 M31.72,32.939l-0.583,4.107l3.779-0.582L34,40.573v-0.002l-9.07,4.699l-5.708-5.874L24.124,30h-0.018l4.1-0.587l-0.589,4.11
		L31.72,32.939z"/>
</g>
</svg>
